<svg xmlns="http://www.w3.org/2000/svg" width="168" height="33" viewBox="0 0 168 33">
    <path fill="#F21" fill-rule="evenodd" d="M164.131 0l-.175.021-.178.022-.19.033-.168.045-.176.054-.17.057-.168.064-.168.078-.157.09-.148.096-.147.1-.146.099-.138.12-.135.123-.125.12-.127.131-.116.144-.104.142-.105.156-.097.153-.082.166-.084.165-.073.165-.064.176-.063.177-.041.184-.043.19-.032.186-.03.187-.011.2v.395l.011.199.03.184.032.2.043.176.04.187.064.177.064.175.073.177.084.165.082.154.097.154.105.153.104.144.116.144.127.13.125.133.135.12.138.114.146.107.147.1.148.088.157.09.168.076.168.066.17.066.176.043.168.045.19.033.178.033.19.01h.378l.179-.01.189-.033.177-.033.18-.045.179-.043.168-.066.168-.066.155-.076.157-.09.16-.087.146-.101.146-.107.138-.113.137-.12.125-.133.116-.13.117-.145.114-.144.094-.153.095-.154.093-.154.084-.165.075-.177.064-.175.052-.177.052-.187.041-.175.032-.2.02-.185.023-.199v-.395l-.022-.2-.021-.187-.032-.187-.04-.189-.053-.184-.052-.177-.064-.176-.075-.165-.084-.165-.093-.166-.095-.153-.094-.156-.114-.142-.117-.144-.116-.13-.125-.121-.137-.123-.138-.12-.146-.1-.145-.099-.161-.097-.157-.09-.155-.077-.168-.064-.168-.057-.18-.054-.179-.045-.177-.033-.189-.022-.164-.021h-.408zm.055 6.823l-.146-.011-.148-.01-.134-.033-.137-.033-.138-.033-.136-.055-.125-.056-.127-.053-.126-.068-.114-.076-.117-.078-.116-.075-.105-.09-.104-.1-.094-.098-.097-.098-.091-.11-.086-.111-.073-.121-.073-.12-.073-.121-.063-.133-.054-.132-.05-.132-.053-.144-.034-.142-.03-.144-.031-.142-.012-.154-.01-.154-.01-.155.01-.154.01-.154.012-.144.031-.153.03-.144.034-.142.052-.133.05-.144.055-.13.063-.123.073-.132.073-.12.073-.111.086-.121.091-.097.097-.111.094-.1.104-.089.105-.097.116-.078.117-.078.114-.076.126-.066.127-.054.125-.055.136-.047.138-.042.137-.033.134-.022.148-.023.146-.01h.297l.145.01.137.023.147.022.135.033.138.042.125.047.136.055.127.054.116.066.127.076.114.078.105.078.118.097.093.09.105.099.093.11.084.098.095.12.073.111.077.121.07.132.064.123.053.13.052.144.043.133.04.142.033.144.02.153.02.144.012.154v.309l-.011.154-.02.154-.021.142-.032.144-.041.142-.043.144-.052.132-.053.132-.063.133-.071.12-.077.12-.073.122-.095.11-.084.111-.093.098-.105.099-.093.1-.118.089-.105.075-.114.078-.127.076-.116.068-.127.053-.136.056-.125.055-.138.033-.135.033-.147.033-.137.01-.145.011-.148.012-.15-.012zM149.834 0l-.387.01-.43.021-.433.045-.41.054-.397.078-.402.1-.377.108-.366.121-.368.134-.346.154-.338.177-.325.187-.314.196-.306.21-.292.22-.283.242V.417h-5.44v27.168h5.44v-8.872l.283.241.292.232.306.208.314.199.325.186.338.166.346.153.368.144.366.121.377.111.402.09.398.073.409.069.433.042.43.024.45.01.516-.022.513-.033.503-.066.495-.088.484-.11.48-.143.472-.155.452-.187.452-.199.43-.22.43-.252.413-.265.397-.284.38-.298.366-.33.345-.343.337-.35.327-.376.293-.383.284-.409.261-.43.252-.43.22-.449.203-.465.175-.473.168-.482.137-.508.106-.506.094-.518.063-.529.041-.539.013-.548-.013-.553-.04-.539-.064-.527-.094-.518-.106-.517-.137-.496-.168-.485-.175-.473-.202-.472-.22-.442-.253-.44-.261-.418-.284-.407-.293-.385-.327-.373-.337-.364-.345-.343-.366-.319-.38-.307-.397-.286-.413-.267-.43-.241-.43-.218-.452-.21-.452-.177-.472-.166-.48-.13-.484-.11-.495-.088-.503-.067-.513-.044-.441-.01h-.138zm-.903 15.048l-.272-.022-.262-.047-.265-.052-.262-.056-.24-.078-.242-.076-.231-.1-.232-.099-.21-.109-.208-.122-.202-.13-.189-.145-.177-.143-.168-.154-.157-.154-.137-.165-.138-.175-.125-.177-.114-.187-.106-.189-.107-.196-.084-.21-.084-.209-.071-.22-.054-.233-.05-.23-.046-.243-.018-.241-.023-.243-.009-.251.01-.255.022-.253.018-.241.045-.232.05-.231.055-.23.07-.222.085-.21.084-.21.107-.195.106-.2.114-.187.125-.175.138-.165.137-.166.157-.153.168-.156.177-.154.189-.13.202-.132.209-.123.209-.109.232-.11.231-.088.241-.088.241-.068.262-.064.265-.043.262-.045.272-.033.284-.012.294-.011.283.011.284.012.273.033.271.045.265.043.25.064.253.068.231.088.241.087.22.111.21.109.211.123.2.132.187.13.18.154.178.156.148.153.148.166.123.165.127.175.118.187.114.2.095.195.095.21.071.21.075.222.063.23.043.231.041.232.03.24.013.254.008.255-.008.25-.013.244-.03.241-.04.243-.044.23-.063.233-.075.22-.071.208-.095.21-.095.197-.114.189-.118.187-.127.177-.123.175-.148.165-.148.154-.177.154-.181.143-.187.144-.2.13-.211.123-.21.11-.22.099-.24.099-.232.076-.252.078-.25.056-.266.052-.27.047-.274.022-.284.021h-.577l-.284-.021zM95.248 0l-.235.01-.271.021-.275.023-.261.022-.263.033-.264.043-.26.046-.252.055-.254.054-.25.067-.252.066-.241.066-.243.087-.241.078-.232.1-.23.087-.231.11-.23.098-.22.111-.223.123-.22.118-.21.133-.21.132-.2.132-.21.144-.2.144-.188.152-.189.154-.188.155-.18.166-.179.175-.177.177-.18.175-.166.187-.168.189-.159.196-.157.198-.147.21-.146.2-.136.207-.137.22-.127.222-.125.218-.118.22-.114.233-.104.23-.107.231-.093.243-.095.242-.084.241-.073.243-.073.253-.073.255-.065.263-.053.253-.04.264-.044.265-.04.274-.03.265-.023.274-.01.276-.01.275-.012.288.011.274.012.288.009.274.022.263.03.276.041.265.043.274.041.253.053.265.065.253.073.253.073.253.073.252.084.244.095.24.093.242.107.232.104.233.114.23.118.22.125.221.127.22.137.208.136.21.146.209.147.198.157.208.159.187.168.189.166.187.18.186.177.178.18.165.179.163.188.166.19.153.188.156.2.142.209.144.2.13.21.135.21.13.22.12.223.112.22.11.23.111.232.098.23.099.231.087.24.09.244.078.24.076.253.068.25.064.254.056.252.053.26.045.264.033.263.045.261.02.275.022.27.012.275.012.273.01.271-.01.275-.012.274-.012.262-.021.273-.021.261-.045.263-.033.253-.045.261-.053.252-.056.253-.064.242-.068.253-.076.239-.078.233-.09.24-.087.23-.1.234-.097.23-.11.22-.111.221-.111.21-.12.22-.131.21-.135.199-.13.201-.144.198-.142.2-.156.189-.153.19-.166.178-.163.178-.165.201-.2.187-.195.18-.21.177-.21.18-.209.167-.222.157-.231.159-.22.146-.241.147-.232.127-.241.137-.255.114-.251.115-.255.116-.253.105-.262h-6.112l-.168.186-.169.175-.166.166-.18.154-.177.144-.188.132-.2.13-.2.111-.22.1-.241.087-.253.078-.261.066-.295.045-.305.033-.338.021-.355.012h-.188l-.191-.024-.189-.021-.19-.033-.185-.033-.19-.057-.19-.052-.19-.068-.189-.076-.186-.078-.19-.087-.18-.1-.18-.099-.175-.109-.17-.122-.178-.121-.158-.132-.168-.133-.157-.142-.148-.144-.146-.153-.136-.166-.136-.165-.127-.166-.126-.175-.114-.186-.106-.178-.095-.198-.084-.187-.084-.198-.073-.197-.064-.21H105.935l.05-.397.032-.406.032-.407v-.706l-.011-.275-.02-.276-.021-.274-.032-.265-.03-.274-.043-.265-.052-.264-.052-.253-.064-.263-.062-.255-.076-.253-.073-.243-.093-.241-.084-.242-.094-.243-.106-.231-.107-.23-.114-.233-.114-.22-.127-.218-.125-.222-.136-.22-.148-.208-.136-.198-.159-.21-.146-.199-.168-.196-.159-.19-.168-.186-.177-.175-.18-.177-.177-.175-.177-.166-.191-.155-.189-.154-.2-.152-.198-.144-.201-.144-.198-.132-.211-.132-.22-.133-.21-.118-.22-.123-.22-.11-.23-.098-.234-.111-.232-.088-.239-.099-.233-.078-.24-.087L98.7.44l-.242-.066-.253-.067-.252-.054-.261-.055-.253-.046-.263-.043-.261-.033-.273-.022-.262-.023-.274-.021L95.87 0h-.622zm-4.507 8.553l.073-.198.074-.199.073-.198.095-.187.094-.187.095-.175.116-.177.105-.165.125-.166.127-.165.125-.154.147-.144.139-.144.144-.142.158-.12.157-.133.168-.11.168-.11.18-.11.18-.088.186-.088.189-.09.19-.063.198-.067.211-.066.198-.042.223-.047.207-.033.222-.022.22-.011h.452l.232.011.219.022.21.033.212.047.211.042.198.066.198.067.2.064.189.09.19.087.178.087.168.111.181.11.155.11.168.132.148.121.145.142.148.144.138.144.135.154.127.165.114.166.117.165.105.177.103.175.095.187.084.187.084.198.073.199.077.198.05.21h-9.755l.064-.21zM73.09 0L72.7.01l-.43.021-.43.045-.408.054-.402.078-.398.1-.377.108-.368.121-.37.134-.344.154-.336.177-.327.187-.313.196-.305.21-.293.22-.284.242V.417h-5.44v27.168h5.44v-8.872l.284.241.293.232.305.208.313.199.327.186.336.166.344.153.37.144.368.121.377.111.398.09.402.073.407.069.432.042.43.024.451.01.516-.022.514-.033.502-.066.495-.088.484-.11.48-.143.473-.155.454-.187.45-.199.431-.22.43-.252.41-.265.399-.284.379-.298.366-.33.346-.343.336-.35.327-.376.293-.383.282-.409.264-.43.252-.43.22-.449.202-.465.176-.473.17-.482.134-.508.118-.506.084-.518.061-.529.042-.539.01-.548-.01-.553L83.2 9.3l-.061-.527-.084-.518-.118-.517-.134-.496-.17-.485-.176-.473-.202-.472-.22-.442-.252-.44-.264-.418-.282-.407-.293-.385-.327-.373-.336-.364-.346-.343-.366-.319-.38-.307-.397-.286-.411-.267-.43-.241-.431-.218-.45-.21-.454-.177-.473-.166-.48-.13-.484-.11-.495-.088-.502-.067-.514-.044-.443-.01h-.136zm-.902 15.048l-.273-.022-.264-.047-.261-.052-.263-.056-.241-.078-.243-.076-.23-.1-.232-.099-.209-.109-.21-.122-.2-.13-.188-.145-.179-.143-.168-.154-.157-.154-.136-.165-.139-.175-.123-.177-.116-.187-.117-.189-.094-.196-.086-.21-.084-.209-.073-.22-.05-.233-.052-.23-.043-.243-.032-.241-.01-.243-.01-.251.01-.255.01-.253.032-.241.043-.232.052-.231.05-.23.073-.222.084-.21.086-.21.094-.195.117-.2.116-.187.123-.175.139-.165.136-.166.157-.153.168-.156.18-.154.186-.13.202-.132.21-.123.208-.109.232-.11.23-.088.243-.088.24-.068.264-.064.261-.043.264-.045.273-.033.284-.012.293-.011.282.011.286.012.27.033.275.045.262.043.252.064.252.068.232.088.239.087.222.111.21.109.209.123.201.132.187.13.181.154.178.156.147.153.146.166.127.165.125.175.118.187.114.2.095.195.093.21.075.21.073.222.064.23.04.231.044.232.03.24.01.254.01.255-.01.25-.01.244-.03.241-.043.243-.041.23-.064.233-.073.22-.075.208-.093.21-.095.197-.114.189-.118.187-.125.177-.127.175-.146.165-.147.154-.178.154-.18.143-.188.144-.201.13-.21.123-.209.11-.222.099-.24.099-.231.076-.252.078-.252.056-.262.052-.274.047-.271.022-.286.021h-.575l-.284-.021zM48.185 0l-.44.01-.516.044-.504.067-.493.087-.494.111-.472.13-.473.166-.461.177-.441.21-.441.218-.42.241-.411.267-.4.286-.375.307-.368.32-.357.342-.336.364-.316.373-.293.385-.283.407-.265.418-.25.44-.222.442-.2.472-.187.473-.157.485-.136.496-.118.517-.084.518-.062.527-.043.54-.009.552.01.548.042.54.062.528.084.518.118.506.136.508.157.482.187.473.2.465.222.45.25.43.265.43.283.408.293.383.316.376.336.35.357.342.368.331.375.298.4.284.41.265.421.253.44.22.442.198.461.187.473.155.472.142.494.111.493.088.504.066.516.033.513.021.443-.01.439-.023.42-.042.42-.069.4-.074.389-.089.388-.11.367-.122.356-.144.355-.153.338-.166.325-.186.316-.199.305-.208.295-.232.27-.24v1.65h5.452V.415h-5.451v1.64l-.271-.24-.295-.22-.305-.21-.316-.197-.325-.187-.338-.177-.355-.154-.356-.134-.367-.12-.388-.11-.389-.099-.4-.078-.42-.054-.42-.045-.439-.021-.38-.01h-.136zm-.104 15.048l-.275-.022-.272-.047-.262-.052-.252-.056-.252-.078-.243-.076-.23-.1-.22-.099-.22-.109-.212-.122-.189-.13-.188-.145-.189-.143-.168-.154-.148-.154-.145-.165-.137-.175-.127-.177-.116-.187-.104-.189-.095-.196-.094-.21-.084-.209-.063-.22-.064-.233-.054-.23-.03-.243-.03-.241-.024-.243v-.506l.024-.253.03-.241.03-.232.054-.231.064-.23.063-.222.084-.21.094-.21.095-.195.104-.2.116-.187.127-.175.137-.165.145-.166.148-.153.168-.156.189-.154.188-.13.19-.132.21-.123.22-.109.221-.11.23-.088.243-.088.252-.068.252-.064.262-.043.272-.045.275-.033.282-.012.284-.011.293.011.275.012.282.033.263.045.262.043.252.064.252.068.243.088.23.087.22.111.22.109.21.123.2.132.188.13.18.154.168.156.147.153.146.166.136.165.126.175.117.187.105.2.106.195.083.21.084.21.061.222.066.23.05.231.043.232.022.24.02.254v.505l-.02.244-.022.241-.043.243-.05.23-.066.233-.061.22-.084.208-.083.21-.106.197-.105.189-.117.187-.126.177-.136.175-.146.165-.147.154-.168.154-.18.143-.188.144-.2.13-.21.123-.22.11-.22.099-.23.099-.243.076-.252.078-.252.056-.262.052-.263.047-.282.022-.275.021h-.577l-.282-.021zM35.539 0l-.396.01-.45.021-.432.057-.42.054-.407.09-.4.097-.389.11-.368.131-.356.156-.348.165-.336.175-.314.2-.306.219-.292.221-.284.242-.272.264V.416h-5.44v19.947h5.44v-9.971l.009-.255.02-.253.023-.241.041-.232.054-.231.05-.23.075-.222.084-.21.085-.21.102-.195.107-.2.114-.187.127-.175.138-.165.134-.166.157-.153.169-.156.179-.154.189-.13.2-.132.209-.123.21-.109.232-.11.232-.088.24-.088.24-.068.265-.064.262-.043.261-.045.275-.033.282-.012.295-.011.23.011.243.012.23.021.231.024.22.033.212.043.218.054.202.055.125-.308.127-.31.125-.295.146-.298.148-.297.147-.286.168-.286.168-.277.178-.262.18-.276.186-.251.202-.265.2-.243.209-.253.21-.232.221-.231.148-.142.144-.142.147-.144.148-.133-.241-.12-.252-.111-.252-.111-.25-.097-.264-.088-.264-.09-.274-.077-.262-.064-.272-.067-.284-.046-.282-.055-.284-.033-.282-.033-.284-.01L35.922 0h-.383zm-25.36 0l-.236.01-.261.021-.273.023-.263.022-.262.033-.261.043-.265.046-.25.055-.253.054-.252.067-.254.066-.24.066-.24.087-.245.078-.228.1-.245.087-.228.11-.222.098-.22.111-.22.123-.22.118-.21.133-.21.132-.21.132-.199.144-.2.144-.188.152-.202.154-.177.155-.189.166-.18.175-.177.177-.168.175-.168.187-.168.189-.159.196-.157.198-.147.21-.146.2-.138.207-.137.22-.134.222-.118.218-.125.22-.107.233-.114.23-.093.231-.095.243-.094.242-.084.241-.084.243-.074.253-.062.255-.064.263-.052.253-.052.264-.043.265-.034.274-.03.265-.02.274-.02.276-.012.275v.562l.011.288.02.274.021.263.03.276.034.265.043.274.052.253.052.265.064.253.062.253.074.253.084.252.084.244.094.24.095.242.093.232.114.233.107.23.125.22.118.221.134.22.137.208.138.21.146.209.147.198.157.208.159.187.168.189.168.187.168.186.178.178.179.165.189.163.177.166.202.153.188.156.2.142.198.144.211.13.21.135.21.13.22.12.22.112.22.11.222.111.228.098.245.099.228.087.245.09.24.078.24.076.254.068.252.064.252.056.25.053.266.045.261.033.262.045.263.02.273.022.261.012.275.012.273.01h.314l.293.011.295.033.295.033.271.043.275.047.261.064.252.066.241.078.243.09.22.097.22.097.212.11.198.121.189.123.177.132.127.11.118.099.114.12.105.111.095.123.093.13.084.12.075.133.062.132.063.144.052.144.043.142.032.142.02.156.01.154.011.153-.011.154-.01.154-.02.144-.032.153-.043.142-.052.135-.063.144-.062.13-.075.132-.084.133-.093.12-.095.12-.105.123-.114.11-.118.11-.127.098-.177.134-.189.132-.198.111-.213.107-.218.111-.22.088-.244.089-.24.078-.253.076-.261.054-.275.057-.27.042-.296.034-.295.02-.293.015-.314.01-.305-.01-.295-.014-.293-.021-.284-.034-.284-.042-.273-.057-.261-.054-.252-.076L8 26.914l-.241-.09-.22-.087-.221-.11-.21-.108-.2-.11-.188-.133-.18-.134-.124-.098-.116-.11-.116-.11-.105-.122-.095-.12-.095-.121-.084-.133-.073-.132-.062-.13-.063-.144-.053-.135-.042-.142-.032-.153-.02-.144-.01-.154-.011-.154v-.572H0v.827l.011.251.02.241.021.244.03.253.045.231.041.243.052.23.064.243.063.22.073.232.075.231.082.218.095.21.096.222.104.208.105.21.114.208.127.199.125.196.138.2.137.188.136.186.159.187.144.187.17.177.158.175.178.165.168.166.19.165.178.154.198.154.347.264.368.255.389.241.398.218.409.2.43.2.431.163.452.165.462.132.472.123.484.109.493.087.505.066.513.045.516.033.525.01.536-.01.514-.033.513-.045.503-.066.495-.087.484-.11.472-.122.462-.132.452-.165.427-.164.432-.198.411-.2.4-.219.386-.24.368-.256.348-.264.198-.154.18-.154.188-.165.168-.166.18-.165.156-.175.166-.177.15-.187.157-.187.136-.186.137-.187.136-.2.127-.197.125-.199.116-.208.105-.21.104-.208.095-.222.094-.21.084-.218.075-.231.072-.232.064-.22.062-.243.052-.23.041-.243.043-.231.034-.253.02-.244.02-.24.01-.252v-.498l-.01-.23-.02-.231-.02-.232-.023-.231-.04-.23-.03-.221-.055-.22-.052-.218-.054-.222-.062-.21-.073-.208-.075-.21-.073-.209-.084-.21-.095-.196-.095-.199-.105-.198-.104-.187-.116-.198-.116-.177-.116-.187-.125-.187-.136-.177-.137-.175-.136-.166-.148-.175-.157-.167-.156-.154-.16-.163-.165-.156-.169-.154.169-.177.166-.175.159-.186.156-.187.146-.189.15-.196.145-.199.137-.21.125-.199.127-.208.125-.22.116-.208.116-.222.104-.231.105-.22.095-.231.095-.232.084-.23.073-.24.075-.244.073-.243.062-.251.054-.243.052-.253.054-.265.03-.253.041-.265.023-.264.02-.263.02-.264.01-.277v-.628l-.02-.352-.03-.35-.034-.343-.05-.34-.053-.343-.074-.329-.073-.33-.096-.32L20.466 7l-.106-.309-.116-.307-.137-.31-.125-.295-.147-.288-.157-.284h2.31V.417h-5.837l-.42-.022-.4-.021-.389-.022-.756-.066-.734-.078-.716-.078-.723-.066-.366-.033-.381-.01-.35-.021h-.737zm-.256 15.048l-.273-.022-.273-.047-.261-.052-.254-.056-.24-.078-.244-.076-.228-.1-.233-.099-.21-.109-.21-.122-.199-.13-.188-.145-.18-.143-.168-.154-.157-.154-.136-.165-.136-.175-.127-.177-.114-.187-.118-.189-.092-.196-.097-.21-.07-.209-.077-.22-.06-.233-.043-.23-.041-.243-.034-.241-.01-.243-.01-.251.01-.255.01-.253.034-.241.04-.232.044-.231.06-.23.076-.222.071-.21.097-.21.092-.195.118-.2.114-.187.127-.175.136-.165.136-.166.157-.153.168-.156.18-.154.188-.13.198-.132.211-.123.21-.109.233-.11.228-.088.245-.088.239-.068.254-.064.261-.043.273-.045.273-.033.282-.012.286-.011.293.011.284.012.273.033.272.045.262.043.252.064.243.068.241.088.232.087.23.111.209.109.213.123.198.132.19.13.176.154.168.156.159.153.138.166.134.165.127.175.114.187.116.2.095.195.096.21.073.21.07.222.055.23.052.231.043.232.032.24.009.254.011.255-.011.25-.01.244-.031.241-.043.243-.052.23-.055.233-.07.22-.073.208-.096.21-.095.197-.116.189-.114.187-.127.177-.134.175-.138.165-.16.154-.167.154-.176.143-.19.144-.198.13-.213.123-.21.11-.23.099-.231.099-.241.076-.243.078-.252.056-.262.052-.272.047-.273.022-.284.021h-.579l-.282-.021zM130.828.416v10.226l-.02.244-.03.241-.032.243-.052.23-.066.233-.063.22-.082.208-.086.21-.103.197-.105.189-.115.187-.127.177-.137.175-.145.165-.148.154-.168.154-.18.143-.197.144-.191.13-.21.123-.22.11-.22.099-.23.099-.243.076-.252.078-.252.056-.262.052-.263.047-.284.022-.273.021h-.575l-.284-.021-.274-.022-.273-.047-.262-.052-.252-.056-.252-.078-.243-.076-.23-.1-.22-.099-.22-.109-.21-.122-.19-.13-.189-.145-.19-.143-.167-.154-.147-.154-.146-.165-.136-.175-.127-.177-.118-.187-.103-.189-.106-.196-.083-.21-.084-.209-.063-.22-.064-.233-.052-.23-.032-.243-.031-.241-.023-.243V.416h-5.436v9.976l.01.548.043.54.061.528.084.518.118.506.136.508.157.482.18.473.209.465.22.45.241.43.275.43.27.408.305.383.316.376.336.35.357.342.368.331.375.298.4.284.411.265.42.253.441.22.441.198.461.187.473.155.473.142.493.111.493.088.504.066.516.033.514.021.409-.01.4-.023.388-.042.389-.055.375-.068.37-.086.357-.1.345-.121.336-.144.325-.144.326-.174.306-.188.291-.199.286-.22.271-.24.263-.254v1.65h5.44V.416h-5.44zm33.486 1.5h-1.25v3.742h.714V4.382H164.355l.714 1.276h.788l-.81-1.42.076-.033.071-.045.073-.043.064-.056.063-.055.052-.056.053-.067.043-.064.04-.066.033-.078.033-.078.032-.075.01-.088.02-.087.011-.09v-.088l-.011-.144-.02-.13-.023-.12-.041-.123-.053-.109-.074-.111-.071-.088-.084-.089-.096-.076-.104-.068-.118-.064-.125-.043-.136-.035-.137-.033-.157-.02h-.157zm-.536.693h.705l.061.01.064.012.052.02.052.022.041.033.055.033.03.035.063.088.041.088.034.109.009.11-.01.1-.033.099-.041.1-.064.077-.03.033-.042.033-.053.033-.052.022-.052.021-.064.012-.061.01-.077.011h-.628V2.61z"/>
</svg>
